<?xml version="1.0" standalone="no"?>
<!DOCTYPE svg PUBLIC "-//W3C//DTD SVG 20010904//EN"
 "http://www.w3.org/TR/2001/REC-SVG-20010904/DTD/svg10.dtd">
<svg version="1.0" xmlns="http://www.w3.org/2000/svg"
 width="458.000000pt" height="458.000000pt" viewBox="0 0 458.000000 458.000000"
 preserveAspectRatio="xMidYMid meet">
<metadata>
Created by potrace 1.14, written by Peter Selinger 2001-2017
</metadata>
<g transform="translate(0.000000,458.000000) scale(0.100000,-0.100000)"
fill="#000000" stroke="none">
<path d="M1968 4143 c-69 -3 -86 -7 -82 -17 6 -15 -30 -32 -56 -27 -10 2 -8
-3 5 -13 19 -16 19 -16 -6 -11 -14 4 -45 -1 -70 -9 -24 -9 -57 -16 -73 -16
-23 0 -26 -3 -17 -14 9 -11 5 -13 -24 -10 -41 3 -90 -29 -67 -44 11 -7 9 -11
-8 -15 -12 -3 -24 -15 -27 -26 -3 -11 -13 -23 -23 -26 -16 -5 -18 -16 -18 -70
1 -49 -3 -69 -17 -85 -10 -11 -21 -17 -25 -15 -9 6 -42 -29 -39 -41 2 -9 -5
-31 -24 -74 -6 -14 -10 -28 -9 -32 1 -3 -5 -12 -13 -18 -8 -7 -15 -17 -15 -23
0 -7 4 -7 12 1 24 24 27 11 7 -23 -18 -30 -19 -35 -5 -35 18 0 21 -16 5 -25
-11 -8 -8 -170 4 -182 4 -3 7 -13 7 -20 0 -8 6 -20 12 -27 18 -19 54 37 88
135 15 42 37 90 48 107 12 16 22 34 22 39 0 14 121 123 137 123 8 0 24 6 36
14 12 8 42 17 67 19 25 2 59 10 75 17 20 9 81 14 180 16 175 2 265 9 349 28
64 15 356 14 399 0 12 -5 27 -8 32 -9 6 -1 30 -11 55 -22 44 -21 84 -57 128
-117 13 -17 22 -23 23 -15 4 48 -31 177 -56 205 -5 7 -19 24 -29 38 -14 20
-21 23 -28 14 -5 -9 -8 -7 -8 7 0 11 -7 30 -15 42 -18 25 -98 74 -125 76 -11
1 -20 5 -20 9 0 5 -10 12 -22 17 -13 5 -48 21 -78 35 -52 24 -53 25 -17 20 46
-8 50 11 5 21 -27 5 -30 8 -14 14 22 8 -49 26 -149 38 -33 3 -65 12 -72 18 -8
8 -26 10 -60 4 -26 -4 -61 -8 -78 -8 -26 0 -27 2 -10 9 20 9 -111 10 -297 3z
m622 -83 c13 -9 13 -10 0 -9 -8 0 -24 4 -35 9 l-20 9 20 0 c11 0 27 -4 35 -9z
m-1024 -127 c-10 -10 -19 5 -10 18 6 11 8 11 12 0 2 -7 1 -15 -2 -18z m1144
-29 c0 -2 -9 0 -20 6 -11 6 -20 13 -20 16 0 2 9 0 20 -6 11 -6 20 -13 20 -16z"/>
<path d="M1046 3735 c-4 -14 -11 -25 -17 -25 -6 0 -7 -4 -4 -10 3 -5 -1 -10
-11 -10 -14 0 -15 -2 -3 -17 12 -15 12 -16 -4 -10 -19 7 -47 -12 -47 -33 0 -7
-8 -9 -22 -4 -22 7 -22 6 -4 -21 18 -27 18 -27 -6 -21 -12 3 -17 3 -10 0 16
-8 15 -24 -2 -24 -7 0 -16 -9 -19 -20 -4 -16 -12 -19 -39 -16 -29 3 -33 7 -33
33 0 25 -3 29 -23 25 -13 -3 -21 -10 -19 -16 3 -6 10 -10 16 -9 6 2 11 -4 11
-13 0 -12 -7 -15 -30 -12 -31 5 -46 -12 -27 -31 8 -8 8 -11 -2 -11 -9 0 -11
-8 -7 -26 5 -17 3 -23 -4 -19 -7 4 -10 -213 -10 -699 l0 -705 26 -20 c20 -16
31 -18 45 -10 15 8 24 5 42 -13 13 -13 30 -23 37 -22 44 3 50 5 50 17 0 7 -9
23 -20 35 -11 12 -20 31 -20 43 0 18 4 20 23 14 12 -4 37 -6 55 -6 17 1 32 -3
32 -9 0 -5 8 -10 19 -10 11 0 21 -9 24 -21 5 -17 12 -20 44 -17 32 3 38 0 38
-17 0 -13 -7 -20 -19 -20 -40 0 -26 -61 20 -85 15 -8 49 -36 75 -62 44 -44 47
-50 42 -84 -5 -31 -4 -36 10 -31 9 3 18 -1 21 -10 7 -18 -12 -46 -26 -37 -5 3
-15 0 -23 -6 -20 -16 -45 -5 -45 19 0 12 -10 27 -22 35 -31 20 -123 32 -132
17 -4 -6 -20 -11 -36 -11 -17 0 -38 -9 -48 -20 -14 -15 -38 -23 -91 -29 -39
-4 -77 -4 -84 1 -36 23 -37 15 -37 -264 0 -262 15 -447 37 -468 4 -5 36 -5 70
-1 48 6 68 13 89 34 31 32 26 42 -20 39 -22 -2 -38 4 -51 18 -18 20 -18 21 1
39 10 11 39 22 64 25 139 16 170 18 170 8 0 -11 32 -4 121 24 25 8 62 16 82
17 19 1 45 11 56 21 23 21 28 61 9 69 -15 5 -131 1 -230 -8 -72 -7 -82 -1 -47
30 13 12 32 18 55 17 36 -3 46 11 17 23 -17 6 -17 7 1 21 17 12 18 14 3 14 -9
0 -17 6 -17 14 0 8 -6 17 -12 19 -7 3 -4 6 7 6 12 1 25 5 30 10 6 5 34 7 63 4
50 -5 58 -12 53 -45 0 -5 4 -8 10 -8 6 0 9 6 6 13 -6 17 27 39 48 31 22 -9 14
-27 -16 -36 -20 -6 -18 -7 11 -5 32 2 35 0 38 -29 2 -23 9 -34 25 -38 17 -5
32 4 67 43 41 44 49 49 85 46 22 -1 48 -6 59 -10 17 -7 35 7 36 28 0 10 -24 9
-36 -3 -17 -17 -38 7 -38 44 0 20 -4 36 -8 36 -4 0 -8 7 -8 15 0 8 -5 15 -11
15 -6 0 -8 7 -5 15 10 27 -25 31 -46 6 -17 -23 -48 -23 -48 -1 0 16 -27 12
-34 -5 -7 -19 -35 -19 -42 0 -4 8 -19 15 -34 15 -16 0 -32 5 -35 11 -4 6 -22
8 -46 4 -45 -8 -89 2 -68 16 14 8 191 5 341 -6 76 -6 78 -5 84 19 6 23 -14
142 -35 211 -7 23 -9 25 -10 9 -1 -14 -11 -26 -30 -34 -24 -10 -33 -9 -55 5
-55 36 -10 105 62 96 11 -2 12 11 7 61 -6 52 -4 66 9 77 13 11 17 10 22 -5 20
-64 27 -74 39 -64 9 8 14 6 18 -5 4 -8 3 -14 -1 -14 -33 5 -45 -23 -16 -39 14
-8 14 -10 -1 -22 -13 -11 -15 -10 -9 6 4 10 3 15 -1 11 -5 -4 -10 -27 -11 -50
-1 -23 1 -36 3 -29 3 6 9 12 14 12 6 0 5 -8 -1 -20 -8 -15 -7 -34 6 -75 10
-30 22 -55 26 -55 5 0 7 -4 4 -9 -4 -5 -1 -22 6 -38 6 -15 12 -33 13 -39 0 -6
6 -18 13 -26 6 -8 13 -29 15 -46 2 -18 7 -35 10 -39 4 -4 19 -31 33 -61 16
-33 37 -60 55 -70 24 -14 29 -22 24 -42 -5 -23 -4 -23 9 -7 12 16 16 15 45
-20 17 -20 31 -40 31 -44 0 -8 -40 0 -56 12 -6 5 -14 6 -17 2 -4 -3 1 -12 11
-20 16 -12 15 -13 -8 -12 -41 2 -52 0 -45 -11 8 -12 0 -13 -23 -1 -9 5 -37 19
-62 31 -75 38 -31 4 60 -45 127 -70 128 -71 119 -156 -5 -39 -17 -97 -29 -130
-11 -33 -18 -64 -15 -69 17 -27 71 -80 82 -80 25 0 138 -59 214 -112 94 -66
122 -74 85 -25 -7 9 -11 28 -9 41 3 13 -2 37 -11 54 -23 44 -20 53 12 48 15
-2 28 -5 30 -6 1 -2 7 -3 12 -4 6 0 15 -8 20 -16 7 -12 12 -12 22 -2 6 6 9 12
5 12 -4 0 -2 6 5 14 7 8 17 12 21 9 5 -3 43 -6 85 -7 56 -2 88 2 119 16 23 10
46 18 52 18 5 0 16 7 25 15 20 20 100 10 92 -12 -3 -7 1 -16 9 -19 8 -4 15
-12 15 -19 0 -8 15 -19 34 -25 38 -12 68 -54 79 -108 7 -37 -45 -209 -69 -228
-8 -6 -14 -19 -14 -28 0 -10 -4 -14 -10 -11 -6 4 -7 -6 -3 -26 6 -30 5 -32
-20 -27 -15 3 -25 2 -22 -2 9 -14 13 -60 5 -55 -4 3 -11 -2 -14 -11 -5 -12 1
-15 30 -12 36 3 37 4 69 93 38 108 123 304 140 325 6 8 22 36 34 62 12 25 42
62 65 82 36 29 45 43 50 80 8 51 -18 123 -47 132 -10 3 -16 8 -13 12 3 3 -1
14 -11 24 -9 10 -14 21 -11 24 7 6 -50 64 -63 64 -23 0 -3 30 59 87 37 35 61
63 55 63 -7 0 -13 7 -13 15 0 8 5 15 10 15 16 0 12 27 -5 34 -8 3 -15 14 -15
25 0 16 4 18 34 11 34 -7 135 -4 145 5 2 3 -14 5 -37 5 -24 0 -44 6 -49 13 -4
8 -26 17 -47 20 -58 9 -56 2 -57 145 0 28 4 41 11 37 5 -3 10 -18 10 -33 0
-23 5 -28 28 -30 15 -1 56 -13 92 -26 56 -20 65 -27 68 -50 5 -42 84 -63 116
-31 8 8 27 15 41 15 17 0 37 11 54 29 26 28 27 34 20 83 -4 29 -12 65 -18 80
-15 39 -25 187 -16 253 6 52 9 58 41 71 18 8 37 14 42 14 10 0 62 -77 63 -93
0 -7 4 -3 8 7 6 15 12 6 29 -41 24 -66 27 -88 12 -78 -14 9 -12 -16 5 -45 11
-19 14 -21 15 -7 0 28 17 20 30 -15 22 -56 61 -142 71 -158 5 -8 14 -27 20
-42 6 -16 15 -26 19 -23 7 4 43 -45 62 -85 3 -8 7 238 7 548 1 558 1 563 -19
552 -11 -6 -25 -20 -31 -32 -9 -16 -13 -18 -20 -7 -4 7 -11 10 -15 6 -4 -4
-13 -2 -20 4 -10 8 -18 1 -34 -31 -11 -22 -27 -43 -35 -46 -7 -3 -19 -20 -26
-37 -17 -42 -60 -84 -93 -93 -14 -3 -29 -10 -32 -15 -3 -5 -17 -9 -32 -9 -23
1 -25 2 -9 11 9 5 17 17 17 25 0 21 -27 47 -41 38 -7 -4 -10 -1 -7 7 3 8 15
13 26 12 20 -2 21 1 18 57 -4 51 -10 68 -42 110 -58 76 -67 70 -103 -70 -11
-41 -27 -91 -35 -112 l-15 -36 -38 34 c-20 19 -44 36 -54 39 -17 6 -31 34 -33
67 -1 9 -12 26 -25 37 -28 24 -32 25 -29 10 6 -25 -44 -15 -77 16 l-34 33 40
17 c22 10 51 30 66 44 29 29 78 129 88 181 10 48 -7 29 -36 -43 -41 -102 -111
-165 -202 -181 -58 -11 -207 -8 -221 3 -7 6 -16 8 -20 4 -9 -9 -55 47 -56 68
0 8 -4 19 -10 25 -5 5 -7 19 -3 32 4 17 9 20 19 11 7 -6 25 -11 41 -13 15 -1
33 -4 38 -8 8 -5 41 -4 77 1 4 1 10 10 13 21 5 15 15 20 40 20 35 0 55 14 33
23 -7 3 3 6 23 6 23 1 39 7 43 16 5 13 -5 20 -26 16 -18 -3 -6 21 12 26 11 3
20 10 20 15 0 5 4 7 9 4 5 -3 23 -3 39 0 34 7 34 29 0 37 -14 4 -19 11 -15 21
4 10 1 16 -9 16 -10 0 -14 6 -10 15 3 8 1 15 -5 15 -6 0 -8 4 -5 8 3 5 -4 16
-15 25 -10 9 -19 23 -19 30 0 22 -58 59 -82 51 -12 -3 -18 -2 -15 3 3 5 -11
15 -31 23 -32 11 -34 14 -17 21 11 4 76 8 145 9 141 2 130 14 -24 25 -56 4
-100 13 -106 20 -8 9 -4 11 17 8 24 -3 22 -1 -12 16 -22 11 -50 20 -62 21 -13
0 -23 5 -23 11 0 5 -6 7 -12 2 -18 -10 -150 -4 -165 9 -9 7 -17 7 -26 -1 -8
-6 -16 -9 -19 -6 -10 10 -108 14 -108 4 0 -7 -6 -7 -17 0 -13 7 -23 5 -35 -6
-12 -11 -18 -12 -18 -4 0 8 -7 10 -19 6 -14 -4 -21 0 -24 12 -3 13 -5 11 -6
-7 -1 -22 -3 -23 -14 -8 -9 11 -18 14 -27 8 -17 -10 -42 -1 -34 12 4 7 -8 8
-36 3 -30 -5 -41 -4 -36 4 12 19 -6 12 -31 -11 -17 -16 -38 -23 -71 -24 -26
-2 -67 -6 -92 -9 -25 -4 -57 -8 -73 -9 -15 -2 -30 -6 -34 -10 -12 -12 -45 -7
-37 7 5 6 -7 0 -25 -15 -18 -16 -39 -28 -47 -28 -7 0 -21 -11 -29 -24 -9 -14
-30 -27 -49 -30 -18 -4 -55 -22 -82 -41 -27 -20 -66 -38 -86 -41 -31 -5 -38
-11 -38 -30 0 -12 -5 -26 -10 -29 -16 -10 -50 -86 -50 -112 0 -20 -5 -23 -37
-23 -43 0 -90 -27 -109 -62 -20 -35 -18 5 1 43 19 36 53 51 97 42 l31 -6 -16
24 c-13 18 -16 35 -11 71 5 33 3 48 -5 48 -15 0 -14 27 2 33 9 3 9 11 1 35
-10 25 -9 34 2 43 8 6 14 18 14 25 0 17 -27 18 -33 2 -4 -10 -6 -10 -6 0 -1
18 -21 15 -21 -4 0 -14 -2 -14 -16 -3 -9 7 -24 13 -35 14 -10 1 -28 10 -40 21
-18 16 -20 26 -15 65 6 42 4 47 -19 57 -14 6 -25 20 -25 29 -1 21 -23 53 -37
53 -16 0 -22 -37 -9 -50 8 -10 7 -11 -4 -8 -8 2 -19 14 -25 26 -5 12 -15 22
-21 22 -18 0 -27 -32 -12 -42 10 -6 8 -8 -4 -8 -11 0 -18 8 -18 19 0 10 -9 21
-20 24 -15 4 -20 14 -20 36 0 17 4 31 9 31 13 0 30 56 24 79 -4 16 1 23 21 31
14 5 26 16 26 24 0 10 -6 13 -15 10 -8 -4 -15 -1 -15 6 0 6 -7 18 -15 26 -20
21 -19 24 15 64 16 19 30 42 30 51 0 36 85 46 120 14 21 -19 28 -65 10 -65 -5
0 -10 -5 -10 -10 0 -6 27 -10 66 -9 56 1 64 4 58 18 -3 9 -9 25 -12 36 -7 26
-22 36 -41 25 -19 -10 -57 8 -90 44 -13 14 -37 28 -52 31 -18 4 -35 18 -44 36
-19 35 -21 36 -29 4z m-92 -401 c9 -3 16 -13 16 -21 0 -12 -8 -14 -35 -9 -37
7 -48 -6 -17 -23 16 -9 16 -10 -1 -16 -35 -14 -62 36 -35 63 13 13 47 16 72 6z
m-118 -36 c4 -6 3 -8 -4 -5 -17 12 -42 -4 -43 -27 0 -20 -1 -20 -10 3 -7 18
-6 27 3 33 19 11 46 10 54 -4z m2004 -308 c0 -5 -2 -10 -4 -10 -3 0 -8 5 -11
10 -3 6 -1 10 4 10 6 0 11 -4 11 -10z m-1221 -60 c-6 -16 -15 -30 -20 -30 -5
0 -9 -8 -9 -19 0 -20 -27 -48 -36 -38 -3 3 -1 14 4 24 5 10 7 24 4 32 -3 9 0
11 8 6 9 -6 11 -4 6 4 -9 14 20 51 40 51 10 0 11 -7 3 -30z m-302 -53 c18 -20
18 -20 -5 -8 -13 7 -30 10 -37 7 -8 -3 -17 -1 -21 5 -3 6 -12 8 -20 5 -8 -3
-14 -1 -14 4 0 18 79 8 97 -13z m1132 19 c-2 -3 -42 -8 -88 -11 -60 -5 -82 -4
-77 4 4 7 39 11 88 11 45 0 79 -2 77 -4z m-182 -12 c-3 -3 -12 -4 -19 -1 -8 3
-5 6 6 6 11 1 17 -2 13 -5z m123 -18 c0 -16 -14 -36 -26 -36 -8 0 -14 2 -14 4
0 2 -3 11 -6 20 -5 12 0 16 20 16 14 0 26 -2 26 -4z m-1119 -44 c-7 -2 -18 1
-23 6 -8 8 -4 9 13 5 13 -4 18 -8 10 -11z m1156 -50 c21 -23 22 -31 18 -143
-4 -107 -2 -123 16 -154 12 -19 19 -35 17 -35 -2 0 -18 -4 -36 -9 -25 -8 -35
-6 -48 6 -14 15 -20 14 -67 -5 -29 -12 -60 -22 -70 -22 -9 0 -17 -4 -17 -9 0
-4 -27 -9 -61 -10 -34 -1 -65 -3 -69 -4 -10 -2 -12 12 -4 35 7 23 98 78 129
78 21 0 25 5 25 28 0 15 -5 33 -12 40 -10 10 -9 18 4 40 9 15 23 54 32 87 11
45 24 68 51 93 39 36 45 35 92 -16z m548 18 c3 -5 -1 -10 -9 -10 -9 0 -16 5
-16 10 0 6 4 10 9 10 6 0 13 -4 16 -10z m-1476 -10 c12 -6 21 -26 25 -55 4
-25 25 -81 47 -124 40 -81 77 -119 144 -147 30 -12 34 -17 25 -33 -5 -11 -15
-21 -22 -24 -10 -3 -10 -7 1 -20 12 -15 11 -17 -4 -17 -11 0 -15 -5 -12 -15 4
-9 -5 -21 -23 -32 -17 -9 -30 -21 -30 -25 0 -4 -7 -8 -15 -8 -8 0 -15 -6 -15
-14 0 -8 -4 -16 -10 -18 -8 -3 -16 -29 -19 -63 -1 -5 -5 -3 -11 5 -15 24 -22
4 -14 -42 4 -24 9 -35 12 -25 2 9 8 17 13 17 12 0 11 -6 -6 -39 -14 -27 -11
-41 7 -41 5 0 6 4 3 10 -3 6 1 7 9 4 20 -8 20 -14 -2 -40 -37 -47 -70 -32 -73
35 -2 22 -7 41 -11 41 -4 0 -8 7 -8 15 0 8 4 15 10 15 5 0 8 6 6 13 -3 6 -7
25 -11 40 -5 25 -8 27 -23 16 -14 -11 -15 -11 -4 1 21 24 14 58 -15 74 -28 15
-28 16 -5 22 27 8 29 34 2 56 -17 15 -18 22 -8 49 7 21 7 33 1 38 -6 3 -14 31
-18 61 -4 30 -10 59 -13 65 -3 5 -7 18 -8 30 -1 11 -7 42 -14 69 -8 38 -8 52
2 64 44 55 55 60 87 42z m121 -54 c0 -2 -13 -9 -30 -15 -24 -8 -30 -7 -30 5 0
9 10 14 30 14 17 0 30 -2 30 -4z m36 -35 c-19 -20 -38 -29 -57 -29 -42 1 -38
28 5 28 18 0 39 7 46 15 7 8 17 15 23 15 6 0 -2 -13 -17 -29z m-569 -23 c-3
-8 -6 -5 -6 6 -1 11 2 17 5 13 3 -3 4 -12 1 -19z m1090 -30 c-3 -7 -5 -2 -5
12 0 14 2 19 5 13 2 -7 2 -19 0 -25z m-536 -18 c3 0 12 7 19 15 14 17 40 20
40 6 0 -5 -12 -24 -27 -43 l-28 -33 28 18 c19 12 27 14 27 5 0 -14 58 -17 79
-4 21 13 25 -2 7 -28 -9 -14 -12 -27 -6 -31 5 -3 16 5 25 19 16 25 51 40 60
26 2 -4 16 -7 30 -7 14 0 22 4 18 10 -4 6 -1 7 7 2 21 -13 60 -14 57 -2 -1 6
6 13 16 15 12 2 20 -3 24 -17 3 -12 10 -21 17 -21 12 -1 -43 -26 -58 -28 -5 0
-12 -6 -17 -13 -4 -7 -20 -14 -36 -15 -15 -1 -27 -7 -26 -13 2 -7 -22 -11 -75
-11 -99 1 -149 22 -189 81 -53 80 -65 130 -20 88 11 -10 24 -19 28 -19z m-448
-27 c9 -9 17 -24 17 -33 0 -18 -45 -62 -54 -53 -3 3 -12 1 -19 -5 -8 -7 -17
-9 -20 -5 -4 3 -7 2 -7 -4 0 -23 -43 1 -55 30 -10 24 -10 35 1 56 7 14 21 29
31 33 25 10 85 -1 106 -19z m912 -20 c-1 -10 -8 -17 -15 -15 -7 1 -18 -5 -26
-15 -11 -14 -13 -15 -14 -3 0 22 12 37 35 43 11 2 21 5 22 6 1 0 0 -7 -2 -16z
m-829 -169 c10 -47 23 -79 38 -93 32 -30 55 -27 62 8 7 32 31 48 47 32 12 -12
-8 -66 -35 -97 -21 -23 -23 -46 -7 -76 15 -29 4 -33 -21 -8 -21 21 -22 21 -69
4 -56 -20 -87 -15 -129 21 -28 23 -70 35 -58 17 2 -4 -23 -7 -57 -6 -77 1
-130 30 -156 85 -20 42 -18 53 9 39 23 -12 53 19 44 44 -6 15 -1 17 32 16 21
-1 44 -1 49 0 6 1 27 1 48 0 27 -1 43 4 52 17 11 14 14 15 15 3 0 -11 4 -9 13
5 6 11 12 25 12 30 0 6 11 9 23 7 36 -3 52 21 53 80 l2 53 9 -55 c5 -30 15
-87 24 -126z m856 154 c-7 -7 -12 -8 -12 -2 0 14 12 26 19 19 2 -3 -1 -11 -7
-17z m453 -91 c57 -32 55 -61 -4 -62 -55 -1 -82 19 -74 58 7 33 25 34 78 4z
m-1268 -84 c-3 -10 -5 -4 -5 12 0 17 2 24 5 18 2 -7 2 -21 0 -30z m1860 -85
c-3 -7 -5 -2 -5 12 0 14 2 19 5 13 2 -7 2 -19 0 -25z m-2 -108 c3 -6 -1 -7 -9
-4 -18 7 -21 14 -7 14 6 0 13 -4 16 -10z m451 -27 c27 -31 26 -27 28 -135 l1
-77 -50 2 c-37 1 -50 6 -50 17 0 10 8 14 28 12 19 -2 27 1 27 11 0 10 -8 14
-24 13 -29 -4 -34 5 -31 59 2 36 33 125 44 125 2 0 14 -12 27 -27z m-491 -3
c3 -5 1 -10 -4 -10 -6 0 -11 5 -11 10 0 6 2 10 4 10 3 0 8 -4 11 -10z m-1767
-30 c29 -39 21 -75 -20 -89 -24 -9 -34 -7 -54 7 -13 9 -21 23 -19 30 3 8 5 21
5 30 0 14 40 48 61 51 3 1 15 -12 27 -29z m259 -32 c-3 -8 -6 -5 -6 6 -1 11 2
17 5 13 3 -3 4 -12 1 -19z m1510 -120 c-3 -8 -6 -5 -6 6 -1 11 2 17 5 13 3 -3
4 -12 1 -19z m-1107 -30 c11 7 20 8 20 3 0 -5 14 -12 31 -16 17 -4 28 -10 25
-13 -4 -3 17 -17 46 -30 59 -27 90 -50 82 -63 -8 -14 78 -31 146 -29 36 1 81
1 100 1 67 -1 102 9 95 27 -5 13 -2 13 15 -3 16 -15 23 -16 33 -6 9 10 8 14
-6 22 -24 14 -11 32 14 19 15 -9 21 -7 27 7 6 17 8 18 23 2 15 -15 14 -18 -13
-34 -22 -13 -29 -23 -26 -40 4 -18 1 -21 -14 -17 -10 2 -18 -1 -18 -7 0 -6 5
-11 10 -11 23 0 8 -25 -16 -26 -14 -1 -33 -9 -43 -18 -10 -9 -21 -13 -24 -9
-4 3 -7 0 -7 -7 0 -14 -14 -5 -16 11 -3 22 -5 23 -14 9 -5 -8 -10 -27 -10 -42
0 -15 -4 -30 -10 -33 -5 -3 -10 -1 -10 4 0 14 -57 14 -65 1 -3 -5 -12 -7 -20
-3 -10 3 -15 -2 -15 -16 0 -25 -22 -27 -44 -5 -20 20 -21 30 -1 14 8 -7 15 -8
15 -2 0 16 -31 37 -38 25 -4 -5 -15 -9 -24 -7 -10 1 -22 -5 -28 -14 -9 -16 -9
-16 -10 -1 0 9 -6 17 -12 16 -38 -1 -50 4 -44 19 5 13 1 14 -26 9 -26 -6 -30
-5 -25 9 8 20 -6 20 -43 1 -34 -17 -43 -2 -12 21 16 12 15 13 -6 14 -18 0 -22
4 -17 19 3 12 0 21 -11 25 -8 3 -14 12 -12 18 5 14 -20 43 -36 43 -6 0 -12 23
-12 55 -2 60 4 79 17 59 7 -11 12 -12 29 -1z m-606 -137 c9 -14 -18 -71 -33
-71 -11 0 -12 3 -4 11 8 8 8 20 3 35 -6 15 -5 24 3 28 19 7 25 7 31 -3z m226
-101 c0 -5 -4 -10 -10 -10 -5 0 -10 5 -10 10 0 6 5 10 10 10 6 0 10 -4 10 -10z
m880 -56 c0 -8 -4 -12 -10 -9 -5 3 -10 10 -10 16 0 5 5 9 10 9 6 0 10 -7 10
-16z m-86 -12 c3 -5 -1 -9 -9 -9 -8 0 -15 4 -15 9 0 4 4 8 9 8 6 0 12 -4 15
-8z m-344 -24 c0 -6 -6 -5 -15 2 -8 7 -15 14 -15 16 0 2 7 1 15 -2 8 -4 15
-11 15 -16z m75 12 c-3 -5 -12 -10 -18 -10 -7 0 -6 4 3 10 19 12 23 12 15 0z
m-1245 -240 c0 -5 -9 -10 -20 -10 -11 0 -20 5 -20 10 0 6 9 10 20 10 11 0 20
-4 20 -10z m-90 -360 c0 -5 -6 -10 -14 -10 -8 0 -18 5 -21 10 -3 6 3 10 14 10
12 0 21 -4 21 -10z"/>
<path d="M1566 2235 c-3 -8 -1 -15 4 -15 6 0 10 7 10 15 0 8 -2 15 -4 15 -2 0
-6 -7 -10 -15z"/>
<path d="M1170 2559 c0 -20 4 -29 13 -27 18 7 20 45 3 51 -12 5 -16 -1 -16
-24z"/>
<path d="M1312 2119 c-32 -12 -30 -57 3 -65 28 -7 55 10 55 35 0 24 -31 40
-58 30z"/>
<path d="M2440 1769 c-7 -11 -9 -23 -6 -27 3 -3 6 0 6 6 0 7 7 12 15 12 17 0
20 16 6 25 -6 3 -15 -4 -21 -16z"/>
<path d="M2310 1766 c0 -2 7 -7 16 -10 8 -3 12 -2 9 4 -6 10 -25 14 -25 6z"/>
<path d="M1136 3503 c-5 -11 -15 -14 -41 -9 -37 7 -50 -8 -16 -19 11 -3 22
-12 25 -20 3 -8 12 -15 19 -15 8 0 21 -8 28 -17 10 -11 10 -14 2 -9 -9 5 -13
-2 -13 -23 0 -20 -5 -30 -12 -28 -8 1 -12 -7 -10 -22 2 -20 -1 -22 -23 -17
-22 6 -25 3 -25 -19 0 -32 27 -33 80 -2 30 16 40 28 40 47 0 14 9 42 20 63 18
34 19 38 4 44 -9 3 -20 0 -24 -7 -5 -8 -9 -9 -14 -1 -4 6 -5 15 -2 20 8 13 -3
38 -19 45 -7 2 -16 -2 -19 -11z"/>
<path d="M1230 3335 c21 -22 50 -34 50 -20 0 14 -37 45 -54 45 -18 0 -18 -2 4
-25z"/>
<path d="M1310 3320 c-12 -7 -12 -10 3 -16 21 -8 29 -3 19 13 -5 8 -13 9 -22
3z"/>
<path d="M1000 3280 c0 -23 4 -24 32 -9 17 9 18 13 7 20 -23 15 -39 10 -39
-11z"/>
<path d="M2980 2651 c0 -5 7 -12 16 -15 14 -5 15 -4 4 9 -14 17 -20 19 -20 6z"/>
<path d="M3211 2498 c-6 -78 -8 -95 -15 -106 -3 -6 3 -16 15 -22 30 -17 69 21
69 68 0 72 -63 127 -69 60z"/>
<path d="M3160 2450 c0 -5 5 -10 11 -10 5 0 7 5 4 10 -3 6 -8 10 -11 10 -2 0
-4 -4 -4 -10z"/>
<path d="M3265 2356 c-25 -20 -28 -27 -17 -38 11 -11 18 -8 38 17 40 50 29 61
-21 21z"/>
<path d="M1570 1919 c0 -5 5 -7 10 -4 6 3 10 8 10 11 0 2 -4 4 -10 4 -5 0 -10
-5 -10 -11z"/>
<path d="M1501 1808 c-13 -32 9 -54 38 -39 25 14 28 46 5 55 -26 10 -34 7 -43
-16z"/>
<path d="M3647 1610 c3 -11 9 -23 14 -26 5 -3 9 -13 9 -22 1 -27 39 -104 49
-98 6 4 4 17 -4 34 -7 15 -23 51 -36 80 -22 51 -42 71 -32 32z"/>
<path d="M1590 1510 c0 -13 11 -13 30 0 12 8 11 10 -7 10 -13 0 -23 -4 -23
-10z"/>
<path d="M3730 1431 c0 -6 4 -13 10 -16 6 -3 7 1 4 9 -7 18 -14 21 -14 7z"/>
<path d="M1238 1333 c7 -3 16 -2 19 1 4 3 -2 6 -13 5 -11 0 -14 -3 -6 -6z"/>
<path d="M1188 1323 c7 -3 16 -2 19 1 4 3 -2 6 -13 5 -11 0 -14 -3 -6 -6z"/>
<path d="M1230 1270 c0 -5 9 -10 20 -10 11 0 20 5 20 10 0 6 -9 10 -20 10 -11
0 -20 -4 -20 -10z"/>
<path d="M3350 1265 c0 -7 22 -46 37 -65 6 -8 11 -19 10 -25 -1 -5 9 -12 23
-13 21 -4 23 -2 10 13 -12 14 -12 18 1 26 8 5 24 9 37 9 56 0 0 44 -70 54 -27
4 -48 5 -48 1z"/>
<path d="M3595 1251 c-7 -12 33 -31 110 -54 44 -13 51 -13 59 0 15 27 -23 50
-95 58 -44 4 -69 3 -74 -4z"/>
<path d="M3172 1243 c-16 -6 3 -33 24 -33 8 0 14 -7 14 -15 0 -8 5 -15 10 -15
6 0 9 5 8 12 -2 8 8 11 28 10 38 -4 54 22 24 38 -19 10 -85 12 -108 3z"/>
<path d="M1867 1219 c7 -7 15 -10 18 -7 3 3 -2 9 -12 12 -14 6 -15 5 -6 -5z"/>
<path d="M3840 1189 c0 -13 -8 -23 -21 -26 -16 -4 -17 -8 -7 -14 9 -6 8 -9 -7
-9 -11 0 -31 -7 -44 -16 -33 -24 -187 -11 -201 17 -12 21 -59 26 -78 7 -16
-16 -83 -38 -107 -34 -11 2 -14 1 -7 -1 6 -3 12 -8 12 -12 0 -18 125 -64 170
-63 25 1 52 -3 60 -8 11 -7 7 -10 -17 -10 -18 0 -33 -4 -33 -8 0 -13 236 -119
245 -110 18 17 56 308 41 308 -3 0 -6 -9 -6 -21z"/>
<path d="M1800 1020 c0 -5 5 -10 10 -10 6 0 10 5 10 10 0 6 -4 10 -10 10 -5 0
-10 -4 -10 -10z"/>
<path d="M3222 950 c-1 -3 -4 -93 -7 -200 -3 -145 -2 -183 6 -147 8 39 9 364
1 347z"/>
<path d="M3060 711 c0 -25 6 -27 13 -6 4 8 2 17 -3 20 -6 4 -10 -3 -10 -14z"/>
<path d="M1910 681 c0 -6 5 -13 10 -16 6 -4 8 -16 5 -28 -4 -15 -3 -18 3 -9 7
11 12 11 25 -2 27 -27 41 -19 22 12 -27 42 -65 67 -65 43z"/>
<path d="M1866 633 c15 -27 41 -66 57 -88 26 -36 29 -37 23 -13 -11 50 -24 75
-56 112 -45 50 -56 45 -24 -11z"/>
<path d="M3025 660 c3 -5 8 -10 11 -10 2 0 4 5 4 10 0 6 -5 10 -11 10 -5 0 -7
-4 -4 -10z"/>
<path d="M2965 560 c-3 -5 -1 -10 4 -10 6 0 11 5 11 10 0 6 -2 10 -4 10 -3 0
-8 -4 -11 -10z"/>
<path d="M2249 457 c7 -9 17 -32 21 -50 l8 -32 1 31 c1 21 -6 37 -21 50 -19
16 -20 16 -9 1z"/>
<path d="M2183 425 c-16 -18 6 -48 26 -36 12 8 12 12 0 29 -11 15 -16 17 -26
7z"/>
<path d="M2242 391 c-1 -19 -9 -39 -18 -46 -15 -11 -15 -12 2 -10 24 1 44 13
44 26 0 6 -4 8 -9 4 -5 -3 -12 9 -14 27 l-4 33 -1 -34z"/>
<path d="M2384 355 c25 -39 28 -39 18 0 -5 15 -15 29 -24 31 -13 1 -12 -4 6
-31z"/>
<path d="M2633 193 c9 -2 23 -2 30 0 6 3 -1 5 -18 5 -16 0 -22 -2 -12 -5z"/>
</g>
</svg>
